<?xml version="1.0" encoding="utf-8"?>
<!-- Generator: Adobe Illustrator 22.1.0, SVG Export Plug-In . SVG Version: 6.00 Build 0)  -->
<svg version="1.1" id="Layer_1" xmlns="http://www.w3.org/2000/svg" xmlns:xlink="http://www.w3.org/1999/xlink" x="0px" y="0px"
	 viewBox="0 0 612 792" style="enable-background:new 0 0 612 792;" xml:space="preserve">
<style type="text/css">
	.st0{fill:#B4B0A8;}
	.st1{fill:#2B2247;}
	.st2{fill:#E3E5E1;}
	.st3{fill:#73D4BF;}
	.st4{fill:#FFFFFF;}
	.st5{opacity:5.000000e-02;}
</style>
<path class="st0" d="M390.9,356h-3.9c-3.9,0-7.1-3.2-7.1-7.1v-12.9c0-3.9,3.2-7.1,7.1-7.1h3.9c3.9,0,7.1,3.2,7.1,7.1v12.9
	C398,352.8,394.8,356,390.9,356z"/>
<path class="st0" d="M219,356H215c-3.9,0-7-3.2-7-7V336c0-3.9,3.2-7,7-7h3.9c3.9,0,7,3.2,7,7V349C226,352.8,222.8,356,219,356z"/>
<g>
	<path class="st1" d="M263,385c-21,0-38-17-38-38s17-38,38-38h81c21,0,38,17,38,38s-17,38-38,38H263z"/>
	<path class="st2" d="M344,316c17.1,0,31,13.9,31,31c0,17.1-13.9,31-31,31h-81c-17.1,0-31-13.9-31-31c0-17.1,13.9-31,31-31H344
		 M344,302h-81c-24.9,0-45,20.1-45,45v0c0,24.9,20.1,45,45,45h81c24.9,0,45-20.1,45-45v0C389,322.1,368.9,302,344,302L344,302z"/>
</g>
<g>
	<circle class="st3" cx="267.5" cy="341" r="9"/>
	<circle class="st3" cx="339.5" cy="341" r="9"/>
	<path class="st4" d="M304.5,359.6h14.2c0,6.3-6.4,11.4-14.2,11.4s-14.2-5.1-14.2-11.4c0-0.1,0-0.1,0-0.2L304.5,359.6z"/>
</g>
<g>
	<path class="st0" d="M236.1,425.2c2.7-2.9,6.4-6.8,12.2-10.5c8.1-5.1,15.8-7.1,20.9-8.3c4.3-1,7.3-1.4,12.4-2.1
		c4.8-0.6,12.2-1.6,21.7-1.6c2.9,0,13.2,0.1,26.7,2.4c11.2,1.9,16.9,2.9,23.3,6.1c9.9,4.9,16,11.7,18.6,14.6
		c4.8,5.4,7.7,10.5,9.3,13.2c1.1,1.9,0.7,1.5,6.1,13.2c3.3,7.4,5.1,11.2,6.1,16.9c1,6.3-0.1,7.7-0.5,8.2c-1.2,1.3-3.7,2.5-13,0
		c-5.6-1.5-13.7-4.4-22.9-10.2c-2.5,7.2-7.1,16.8-15.7,25.6c-3.7,3.8-8.9,9-17.5,12.4c-10.4,4.2-19.5,3.4-25.2,2.9
		c-5.2-0.5-14.7-1.4-24.6-7.7c-3.2-2-7-4.4-10.6-9c-7.9-10.2-10.2-18.6-10.2-18.6c-0.5-1.9-1.1-4.5-3-5.2c-1.9-0.7-4,1-6.4,2.6
		c-3.8,2.5-7.4,3.5-14.5,5.6c-5.1,1.5-13.3,3.9-15.6,0.8c-0.4-0.6-0.8-1.6,0.4-7c1.6-7.3,3.2-11.2,3.2-11.2
		C223.8,443,227.4,434.5,236.1,425.2z"/>
	<path class="st2" d="M303.6,508.5c-0.2-12-0.3-19-0.3-23.4c0-0.8,0-4.2,0-8.7c0-4.7-0.1-7.9-0.1-8.6c0-2-0.1-17.7,0.5-38.3
		c0.2-7,0.4-11.2-2.6-14c-2.1-2-4.8-2.3-9.6-2.6c-5.9-0.4-17.5-0.3-26,0.7c-0.8,0.1-2.7,0.3-3.9-0.8c-1-1-1.1-2.5-1-3.5
		c-1.4,0.3-3.4,0.8-5.7,1.8c-6.8,2.7-11.3,6.8-14.7,10c-3.2,3-5.2,5.4-6.9,7.5c-7.9,9.6-11.8,18.2-12.7,20.1c-1,2.2-2,4.9-3.9,10.2
		c-2.2,6-2.8,8.4-3.2,11.2c-0.4,2.9-0.4,5.3-0.4,7c1.3,0.6,3.5,1.4,6.2,1.4c1.4,0,2.2-0.2,7.9-1.6c5.5-1.4,5.8-1.4,6.9-1.8
		c0.9-0.3,2.5-0.9,6.7-2.8c2.2-1,5.2-2.5,8.8-4.3c2.6,6.6,5.5,11.7,7.7,15.2c3.9,6,8.1,12.5,16.1,17.7c4.6,3,8.7,4.3,11,5.1
		C292.4,508.5,299.3,508.7,303.6,508.5z"/>
	<circle class="st0" cx="271.4" cy="437.2" r="7.9"/>
	<path class="st0" d="M237.2,466.3c0.7-6.7,1-10.1,1.1-10.8c1.1-5.7,1.6-8.8,3.7-12.6c1.4-2.5,2.9-4.3,4-5.5
		c0.9,5.2,1.7,10.5,2.6,15.8c0.8,5.3,1.6,10.5,2.4,15.7c-4.5,1-7.7,2.2-10,3.2c-1.2,0.5-2.3,1.1-3.2,0.6
		C236.6,472.2,236.8,469.9,237.2,466.3z"/>
</g>
<ellipse class="st5" cx="303.5" cy="538.7" rx="47.1" ry="7.8"/>
</svg>
