<svg id="Layer_1" data-name="Layer 1" xmlns="http://www.w3.org/2000/svg" viewBox="0 0 184.99 347.96"><defs><style>.cls-1,.cls-4{fill:#fff;}.cls-1,.cls-2,.cls-3{stroke:#000;stroke-miterlimit:10;stroke-width:2px;}.cls-2{fill:none;}</style></defs><title>cathedralOfLearning</title><path class="cls-1" d="M250.82,315.11V168.82L267,150.74l31.74,6.2,10.84,208.23H270.79q-.63-25.05-1.29-50.07Z" transform="translate(-221.58 -24.01)"/><path class="cls-1" d="M268.18,150.73l1.29,164.36" transform="translate(-221.58 -24.01)"/><path class="cls-1" d="M222.58,365.16V326.5s4.14-14.32,16-16.46l3.09.35,27.94,3.22,2.58,51.55Z" transform="translate(-221.58 -24.01)"/><line class="cls-2" x1="16.51" y1="286.03" x2="15.99" y2="341.15"/><path class="cls-3" d="M262.69,319.34c5-3,3.58,45.82,3.58,45.82H260.9S260.3,320.77,262.69,319.34Z" transform="translate(-221.58 -24.01)"/><path class="cls-3" d="M281.25,174.16a.9.9,0,0,1,.67-.29c8.68,1.17,2.74,191.24,2.74,191.29h-6C276.83,315.47,272.47,181.74,281.25,174.16Z" transform="translate(-221.58 -24.01)"/><path class="cls-3" d="M294.47,174.16c.28-.34.47-.35.51-.34,5.94.88,2.22,183.68,2.17,191.34h-4.77C291.43,330.07,287.68,182.89,294.47,174.16Z" transform="translate(-221.58 -24.01)"/><path class="cls-3" d="M258.07,177.32c.26,0,.55.73,1,3,3.17,16.37,4.61,65.87,3.57,132.11l-5.36-.43C256.23,248.35,255.59,177.52,258.07,177.32Z" transform="translate(-221.58 -24.01)"/><path class="cls-3" d="M247.62,319.34c6.15-3,4.42,45.82,4.42,45.82h-6.63S244.67,320.77,247.62,319.34Z" transform="translate(-221.58 -24.01)"/><path class="cls-3" d="M229,325.9c6.16-2.59,4.42,39.26,4.42,39.26H226.8S226.06,327.12,229,325.9Z" transform="translate(-221.58 -24.01)"/><path class="cls-4" d="M286.08,210.47l-9.49-.06.28-8.12h9Z" transform="translate(-221.58 -24.01)"/><path class="cls-4" d="M286.08,222.54l-9.49-.07.28-6.45h9Z" transform="translate(-221.58 -24.01)"/><path class="cls-4" d="M286.08,237h-9.49l.28-8.12h9Z" transform="translate(-221.58 -24.01)"/><path class="cls-4" d="M286.08,249h-9.49l.28-6.15h9Z" transform="translate(-221.58 -24.01)"/><path class="cls-4" d="M286.08,265l-9.49-.06.28-8.13h9Z" transform="translate(-221.58 -24.01)"/><path class="cls-4" d="M286.08,278.15h-9.49l.28-6.33h9Z" transform="translate(-221.58 -24.01)"/><path class="cls-4" d="M286.08,294.42l-9.49-.07.28-8.13h9Z" transform="translate(-221.58 -24.01)"/><path class="cls-4" d="M285.45,310h-8l.24-6.78h7.59Z" transform="translate(-221.58 -24.01)"/><path class="cls-4" d="M285.45,322.53h-8l.24-6.77h7.59Z" transform="translate(-221.58 -24.01)"/><path class="cls-4" d="M285.38,335.07l-7.75-.07.25-6.71h7.42Z" transform="translate(-221.58 -24.01)"/><path class="cls-4" d="M285.23,347.66h-7.35l.23-6.78h6.95Z" transform="translate(-221.58 -24.01)"/><path class="cls-4" d="M284.9,358.51h-6.45l.19-5.07h6.08Z" transform="translate(-221.58 -24.01)"/><path class="cls-4" d="M297.5,210.47l-6-.06.18-8.12h5.74Z" transform="translate(-221.58 -24.01)"/><path class="cls-4" d="M297.5,222.54l-6-.07.18-6.45h5.74Z" transform="translate(-221.58 -24.01)"/><path class="cls-4" d="M297.5,237h-6l.18-8.12h5.74Z" transform="translate(-221.58 -24.01)"/><path class="cls-4" d="M297.5,249h-6l.18-6.15h5.74Z" transform="translate(-221.58 -24.01)"/><path class="cls-4" d="M297.5,265l-6-.06.18-8.13h5.74Z" transform="translate(-221.58 -24.01)"/><path class="cls-4" d="M297.5,278.15h-6l.18-6.33h5.74Z" transform="translate(-221.58 -24.01)"/><path class="cls-4" d="M297.5,294.42l-6-.07.18-8.13h5.74Z" transform="translate(-221.58 -24.01)"/><path class="cls-4" d="M297.08,310H292l.16-6.78H297Z" transform="translate(-221.58 -24.01)"/><path class="cls-4" d="M297.08,322.53H292l.16-6.77H297Z" transform="translate(-221.58 -24.01)"/><path class="cls-4" d="M297,335.07l-5-.07.14-6.77h4.71Z" transform="translate(-221.58 -24.01)"/><path class="cls-4" d="M297,347.66h-4.63l.14-6.78h4.42Z" transform="translate(-221.58 -24.01)"/><path class="cls-4" d="M296.75,358.51h-4.07l.13-5.07h3.87Z" transform="translate(-221.58 -24.01)"/><path class="cls-1" d="M284.75,154l-7.39-1.56-2.58-16.17,4.44.36V113l2.86.2,1.29,19.15Z" transform="translate(-221.58 -24.01)"/><polygon class="cls-1" points="59.13 36.92 61.95 130 76.77 132.98 75.13 101.68 78.25 101.43 75.38 66.79 71.31 66.79 70.12 26.89 59.13 36.92"/><path class="cls-1" d="M349.17,94.12l-1.29-28.18h-4.53l-1.44-17.68-3.59-.95V35.84s-4.05-.48-6-2.59-1.91,2.87-1.91,2.87S317.3,33,315.14,34L314,29.2s-.48-.72-3.87,0c0,0-1.92-5-3.88-4.07s-3.59,4.78-3.59,4.78a5,5,0,0,1-2.78,2.1c-1.66.24,0,12.43,0,12.43l-8.35.48.23,6,1.2,39.91,9.51-.14" transform="translate(-221.58 -24.01)"/><path class="cls-3" d="M287.75,65.45a.4.4,0,0,1,.28-.24h.13c.12,0,.61,18.43,2.1,89.47l-2.76-1C286.75,127.31,286,68.31,287.75,65.45Z" transform="translate(-221.58 -24.01)"/><path class="cls-3" d="M296.35,55.39a.28.28,0,0,1,.19-.09h.09c.09,0,.35,8,1.29,35.05h-1.79C295.7,79.93,295.17,56.51,296.35,55.39Z" transform="translate(-221.58 -24.01)"/><path class="cls-3" d="M307.93,42.55a.39.39,0,0,1,.2-.13h0a.09.09,0,0,1,.07,0s.3,10.61,1.18,48.5h-1.6C307.29,76.44,306.76,44.15,307.93,42.55Z" transform="translate(-221.58 -24.01)"/><path class="cls-3" d="M338.23,53.05a.19.19,0,0,1,.07-.11h0s.1,9,.42,41.17h-.58C338,81.79,337.8,54.37,338.23,53.05Z" transform="translate(-221.58 -24.01)"/><line class="cls-2" x1="78.25" y1="20.43" x2="80.84" y2="66.69"/><path d="M332.12,41.78a56.87,56.87,0,0,1-6.26.24c-1.71,0-3.4,0-5.09.09-2.26.16-3.8.43-4.28-.34a1,1,0,0,1,0-1c.46-.69,1.94-.4,3.49-.18,2,.28,4,.27,6,.49C330.55,41.57,332.19,41.65,332.12,41.78Z" transform="translate(-221.58 -24.01)"/><path class="cls-2" d="M316.86,91.6s-6-41.32,5.16-40.7,10.1,42.45,10.1,42.45Z" transform="translate(-221.58 -24.01)"/><path d="M319.37,51.68c-.11,1.3-.2,2.59-.23,4a53.84,53.84,0,0,0,.64,9.57l4.39.43c.2-3.88.4-7,.63-9.78,0,0,.27-3.39-.93-4.11a8.34,8.34,0,0,0-1.5-.66L322,51A3.58,3.58,0,0,0,319.37,51.68Z" transform="translate(-221.58 -24.01)"/><rect x="99.37" y="48.86" width="4.48" height="12.08"/><rect x="99.37" y="65.99" width="4.48" height="2.09"/><rect x="107.37" y="65.99" width="3.15" height="3.15"/><path d="M318,87.39h-1.6l-.6-12.2,2.2.13Z" transform="translate(-221.58 -24.01)"/><path d="M317.64,67.83l-2,.54c.18-2.17.37-4.34.53-6.53.15-1.88.27-3.75.4-5.6h.77Z" transform="translate(-221.58 -24.01)"/><path d="M331.15,69.91l-2.68-.48q-.36-5.64-.73-11.3h1Q329.92,64.05,331.15,69.91Z" transform="translate(-221.58 -24.01)"/><rect x="106.88" y="49.47" width="3.2" height="12.08"/><path class="cls-1" d="M310.36,365.26,297.73,121.17h3.32l-2-36h10a6.09,6.09,0,0,1,5.66-4c4.32,0,5.65,6.67,5.65,6.67l21.62,2s1.29-3.68,3-3.34,3.65,3.34,3.65,3.34h4.67l1.29,9.62h4l1.7,18.29,3.32.66,8.66,91.14,2.68.34h2l1.72,23.63,5.65,3,7.66,61.54,9.65.68,3.93,72.17Z" transform="translate(-221.58 -24.01)"/><path class="cls-1" d="M331,255.29S322.89,97,337.47,97.61s15.85,151.2,15.85,151.2Z" transform="translate(-221.58 -24.01)"/><path d="M341.61,153l-5.7.6.68-16.79,4.86-1.18Z" transform="translate(-221.58 -24.01)"/><path d="M342,176.13l-5.73.61L337,160l4.84-1.19Z" transform="translate(-221.58 -24.01)"/><path d="M342.45,202.58l-5.7.62.68-16.79,4.86-1.2Z" transform="translate(-221.58 -24.01)"/><path d="M342.88,229.1l-4.79.44L337.86,213l5.47-.7Q343.12,220.7,342.88,229.1Z" transform="translate(-221.58 -24.01)"/><path d="M344.82,250.86l-5.72,2c0-4-.07-8-.11-12l4.78-.95Z" transform="translate(-221.58 -24.01)"/><path d="M349.48,151.71l-3.65.31-.9-16.63,2.15-.37Z" transform="translate(-221.58 -24.01)"/><path d="M333,154.49h-4.41l.66-16.46,2.79-.33Q332.56,146.1,333,154.49Z" transform="translate(-221.58 -24.01)"/><path d="M342.88,131.09l-5.72.62.7-16.79,4.84-1.2Z" transform="translate(-221.58 -24.01)"/><path d="M333.34,132.56l-3.4.09.66-16.47,2.14-.36C333,121.43,333.15,127,333.34,132.56Z" transform="translate(-221.58 -24.01)"/><path d="M306.54,174.26l-2.39.72q-.7-18.82-1.42-37.63l3.07-.31Z" transform="translate(-221.58 -24.01)"/><path d="M309.74,223.8l-2.16,1.44L306,188.61l1.71-2.69Z" transform="translate(-221.58 -24.01)"/><path d="M312.59,271.72l-2.49.9-2.31-37.45,1.92-.91Q311.15,253,312.59,271.72Z" transform="translate(-221.58 -24.01)"/><path d="M313.73,315.84l-2.43,1.29q-.36-16.8-.76-33.65l2.58-.41Q313.47,299.47,313.73,315.84Z" transform="translate(-221.58 -24.01)"/><path d="M315.23,365.55l-2.58-.16-.26-33.84,2.1-.94Z" transform="translate(-221.58 -24.01)"/><path d="M350.51,174.74l-3.73.33q-.13-8.35-.28-16.79l2.22-.49Z" transform="translate(-221.58 -24.01)"/><path d="M332.68,177.44h-5l.66-16.46,3.94-.4Q332.48,169,332.68,177.44Z" transform="translate(-221.58 -24.01)"/><path d="M351.78,200.84l-3,.35q0-8.35-.09-16.71l1.81-.51Z" transform="translate(-221.58 -24.01)"/><path d="M332.68,203.42h-4.35L329,187l4.23-.17Z" transform="translate(-221.58 -24.01)"/><path d="M353.15,227.29l-3.62.34-.24-16.73,2.14-.5Z" transform="translate(-221.58 -24.01)"/><path d="M333.76,229.64l-3.87.28-.83-16.58,4.19-.35Q333.52,221.32,333.76,229.64Z" transform="translate(-221.58 -24.01)"/><path d="M353.13,247.1l-2.78,2c0-4-.1-8-.13-12l2.33-.91Z" transform="translate(-221.58 -24.01)"/><path d="M335.05,253.65l-4.13,2.25c0-4.6-.1-9.19-.14-13.78l3.46-1.06Z" transform="translate(-221.58 -24.01)"/><path class="cls-3" d="M312.75,126.81c.37.1.81,6.82,1,9.22.55,9,2.49,55.94,8.76,229l-1.13-.15c-4.64-100.89-9.56-213.09-9.21-228.59C312.21,133.72,312.36,126.68,312.75,126.81Z" transform="translate(-221.58 -24.01)"/><path class="cls-3" d="M361,129.19c.1,0,.28,3.48.33,4.71.4,8,2.44,67.46,4.12,117.18h-.7c-3-85.24-3.87-112.1-3.87-117.14C360.94,132.74,360.94,129.14,361,129.19Z" transform="translate(-221.58 -24.01)"/><path class="cls-3" d="M372.57,222.46a4.06,4.06,0,0,1,.22,1.29c.2,2.2.7,18.5,1.09,32.13h-.7c-.81-23.36-.93-30.73-.83-32.12A5.7,5.7,0,0,1,372.57,222.46Z" transform="translate(-221.58 -24.01)"/><path class="cls-3" d="M397.09,307.62a13.86,13.86,0,0,1,.25,2.4c.27,4.1,1.29,34.38,2.08,59.72h-.71c-1.52-43.42-1.86-57.13-1.79-59.7A15.07,15.07,0,0,1,397.09,307.62Z" transform="translate(-221.58 -24.01)"/><path class="cls-3" d="M320.86,113.82c.3,0,.58,4.17.68,5.64.38,5.41,1.4,33.28,4.41,140.14h-.53c-4.71-109-5.3-134.87-5.1-140C320.38,118.09,320.5,113.75,320.86,113.82Z" transform="translate(-221.58 -24.01)"/><path class="cls-3" d="M354.35,109.35c.3,0,.58,4,.68,5.45.37,5.17,1.3,32.17,3.7,135h0c-4.59-105.08-5.17-129.95-4.92-134.92C353.87,113.47,354.08,109.3,354.35,109.35Z" transform="translate(-221.58 -24.01)"/><path class="cls-1" d="M325.86,366.18,322.14,260.4,334,253.52l10.21-1.69a49.25,49.25,0,0,1,9-1.38,53.83,53.83,0,0,1,28,6.21q6.54,56.32,13.12,112.66Z" transform="translate(-221.58 -24.01)"/><line class="cls-2" x1="112.42" y1="229.51" x2="119.22" y2="343.06"/><path class="cls-1" d="M352.4,366.46c-3.63-53.8-5.35-93.1-4.37-98.75a11.83,11.83,0,0,1,3.67-7,7,7,0,0,1,4-1.65c4.09-.12,7.33,5,8.47,6.83,7.1,11.24,10.09,93.4,10.33,102.61Z" transform="translate(-221.58 -24.01)"/><path d="M360.54,285.24l-4.47.53.54-14.43,3.78-1Z" transform="translate(-221.58 -24.01)"/><path d="M357.16,306.07l4.27-.35q-.18-7.59-.34-15.18l-4-.26Z" transform="translate(-221.58 -24.01)"/><path d="M362.86,328l-4.47.41-.58-14.94,4.77-.4Z" transform="translate(-221.58 -24.01)"/><path d="M364.71,350.13l-4.47.53-.48-14.43,4.82-.32Q364.64,343,364.71,350.13Z" transform="translate(-221.58 -24.01)"/><path d="M365.25,368.67l-5.54-.24.08-8.8,3.68-.1Z" transform="translate(-221.58 -24.01)"/><path d="M368.28,283.56l-4.24.83L363.12,270l2-.3Q366.74,276.63,368.28,283.56Z" transform="translate(-221.58 -24.01)"/><path d="M352,286.8h-3.54l-.18-14.2,2.92-.27C351.49,277.18,351.74,282,352,286.8Z" transform="translate(-221.58 -24.01)"/><path d="M369.81,304l-3.6.27-.43-14.42,2.14-.42Z" transform="translate(-221.58 -24.01)"/><path d="M353.55,306.33h-4q-.47-7-.92-14l3.94-.45Z" transform="translate(-221.58 -24.01)"/><path d="M371.76,326l-3.33.27q-.17-7.22-.34-14.41l2-.42Z" transform="translate(-221.58 -24.01)"/><path d="M354,328.75h-3.78q-.35-7.17-.71-14.33l3.59-.15Q353.54,321.53,354,328.75Z" transform="translate(-221.58 -24.01)"/><path d="M373.61,349l-3.78.16L369,334.74l3-.37Z" transform="translate(-221.58 -24.01)"/><path d="M355.72,351.17l-3.88.21L350.55,337l3.57-.09Z" transform="translate(-221.58 -24.01)"/><path d="M374.5,368.8l-3.79-.06-.08-9.48,3.18-.75Q374.14,363.66,374.5,368.8Z" transform="translate(-221.58 -24.01)"/><path d="M355.78,367.87l-2.83-.09c-.34-2.58-.71-5.17-1.05-7.67l3.56-.66C355.56,362.25,355.68,365.06,355.78,367.87Z" transform="translate(-221.58 -24.01)"/><path class="cls-3" d="M329.54,263.71c.3,0,.54,3,.63,4,.31,3.8,1.05,23.4,2.92,98.58h-.53c-3.56-76.72-3.87-94.87-3.61-98.5C329,266.72,329.18,263.71,329.54,263.71Z" transform="translate(-221.58 -24.01)"/><path class="cls-3" d="M376.4,263.71c.17,1.36.28,2.73.32,4.09.24,4.72,2.5,31.12,8.94,101.57l-2.86-.09c-5.23-74.66-6.52-97.14-6.46-101.4A31.87,31.87,0,0,1,376.4,263.71Z" transform="translate(-221.58 -24.01)"/><path class="cls-3" d="M341.71,262.64c.1,0,.25,3,.32,4,.2,4.24,1,26.88,3.49,100.4l-1.3-.06c-2.08-73.23-2.58-96-2.58-100.26A37.77,37.77,0,0,1,341.71,262.64Z" transform="translate(-221.58 -24.01)"/></svg>