<?xml version="1.0" encoding="utf-8"?>
<!-- Generator: Adobe Illustrator 23.0.1, SVG Export Plug-In . SVG Version: 6.00 Build 0)  -->
<svg version="1.1" id="Layer_1" xmlns="http://www.w3.org/2000/svg" xmlns:xlink="http://www.w3.org/1999/xlink" x="0px" y="0px"
	 viewBox="0 0 156.94 166.19" style="enable-background:new 0 0 156.94 166.19;" xml:space="preserve">
<style type="text/css">
	.st0{clip-path:url(#SVGID_2_);}
	.st1{opacity:0.5;clip-path:url(#SVGID_4_);}
	.st2{clip-path:url(#SVGID_6_);}
	.st3{clip-path:url(#SVGID_8_);fill:#F0867A;}
	.st4{clip-path:url(#SVGID_10_);fill:none;stroke:#000000;stroke-width:4;stroke-miterlimit:10;}
	.st5{clip-path:url(#SVGID_12_);}
	.st6{opacity:0.5;clip-path:url(#SVGID_14_);fill:#878384;}
	.st7{clip-path:url(#SVGID_16_);}
	.st8{clip-path:url(#SVGID_18_);fill:#C73A4D;}
	.st9{clip-path:url(#SVGID_20_);}
	.st10{clip-path:url(#SVGID_22_);fill:#F59E95;}
	.st11{clip-path:url(#SVGID_24_);}
	.st12{clip-path:url(#SVGID_26_);fill:#FAD86C;}
	.st13{clip-path:url(#SVGID_28_);}
	.st14{fill:#348AC6;}
	.st15{font-family:'AvenirNext-HeavyItalic';}
	.st16{font-size:7.9331px;}
</style>
<g>
	<defs>
		<ellipse id="SVGID_1_" cx="82.18" cy="136.58" rx="33.57" ry="7.51"/>
	</defs>
	<clipPath id="SVGID_2_">
		<use xlink:href="#SVGID_1_"  style="overflow:visible;"/>
	</clipPath>
	<g class="st0">
		<defs>
			<rect id="SVGID_3_" x="9.62" y="-48.53" width="145.12" height="258.12"/>
		</defs>
		<clipPath id="SVGID_4_">
			<use xlink:href="#SVGID_3_"  style="overflow:visible;"/>
		</clipPath>
		<rect x="47.64" y="128.11" class="st1" width="69.08" height="16.95"/>
	</g>
</g>
<g>
	<defs>
		<path id="SVGID_5_" d="M79.09,34.61c20.46,0,37.04,22.82,37.04,50.96s-16.59,50.96-37.04,50.96s-37.04-22.82-37.04-50.96
			S58.63,34.61,79.09,34.61"/>
	</defs>
	<clipPath id="SVGID_6_">
		<use xlink:href="#SVGID_5_"  style="overflow:visible;"/>
	</clipPath>
	<g class="st2">
		<defs>
			<rect id="SVGID_7_" x="9.62" y="-48.53" width="145.12" height="258.12"/>
		</defs>
		<clipPath id="SVGID_8_">
			<use xlink:href="#SVGID_7_"  style="overflow:visible;"/>
		</clipPath>
		<rect x="41.07" y="33.64" class="st3" width="76.02" height="103.86"/>
	</g>
</g>
<g>
	<defs>
		<rect id="SVGID_9_" x="9.62" y="-48.53" width="145.12" height="258.12"/>
	</defs>
	<clipPath id="SVGID_10_">
		<use xlink:href="#SVGID_9_"  style="overflow:visible;"/>
	</clipPath>
	<ellipse class="st4" cx="79.09" cy="85.57" rx="37.04" ry="50.96"/>
</g>
<g>
	<defs>
		<path id="SVGID_11_" d="M104.33,57.75c-1.24-1.53-3.68-0.19-3.06,1.7c3.09,9.53,2.38,21.45,0.63,33.33
			c-3.05,20.77-11.6,36.07-26.85,40.99c0.14,0.02,0.26,0.05,0.4,0.06c17.23,2.54,34.03-14.63,37.51-38.34
			C115.15,80.61,111.57,66.67,104.33,57.75"/>
	</defs>
	<clipPath id="SVGID_12_">
		<use xlink:href="#SVGID_11_"  style="overflow:visible;"/>
	</clipPath>
	<g class="st5">
		<defs>
			<rect id="SVGID_13_" x="9.62" y="-48.53" width="145.12" height="258.12"/>
		</defs>
		<clipPath id="SVGID_14_">
			<use xlink:href="#SVGID_13_"  style="overflow:visible;"/>
		</clipPath>
		<rect x="74.08" y="56.12" class="st6" width="40.49" height="78.93"/>
	</g>
</g>
<g>
	<defs>
		<path id="SVGID_15_" d="M76.21,113.97c-2.27,2.27-5.95,2.27-8.21,0c-2.27-2.27-2.27-5.95,0-8.21c2.27-2.27,5.94-2.27,8.21,0
			C78.48,108.02,78.48,111.7,76.21,113.97 M105.49,87.89c-3.28,0-5.92,3.71-5.92,8.27c0,4.56,2.66,8.27,5.92,8.27
			c3.26,0,5.92-3.71,5.92-8.27C111.41,91.61,108.75,87.89,105.49,87.89 M77.62,63.3c-8.15,0-14.77,6.62-14.77,14.77
			c0,8.15,6.62,14.77,14.77,14.77s14.77-6.62,14.77-14.77C92.39,69.92,85.77,63.3,77.62,63.3 M100.51,114.03
			c-4.75,0-8.58,3.85-8.58,8.58c0,3.02,1.58,5.82,4.18,7.36c4.28-3.23,8.04-7.58,11.07-12.78
			C105.55,115.21,103.09,114.03,100.51,114.03 M42.95,92.04c6.68-1.19,11.14-7.56,9.96-14.26c-0.77-4.38-3.87-8-8.07-9.47
			c-1.45,5.63-2.2,11.43-2.18,17.26C42.66,87.77,42.75,89.92,42.95,92.04 M58.42,127c2.24-4.18,0.68-9.39-3.5-11.63
			c-1.25-0.67-2.64-1.02-4.07-1.02c-0.46,0-0.91,0.03-1.36,0.11C51.93,119.31,54.94,123.56,58.42,127 M77.07,41.88
			c0,4.75,3.85,8.58,8.58,8.58c4.75,0,8.58-3.85,8.58-8.58c0-0.71-0.09-1.42-0.26-2.1c-4.28-2.63-9-4.16-13.95-4.36
			C78.14,37.04,77.07,39.4,77.07,41.88 M111.35,62.5c-2.23,6.17-0.74,13.09,3.82,17.82C114.72,74.22,113.44,68.22,111.35,62.5"/>
	</defs>
	<clipPath id="SVGID_16_">
		<use xlink:href="#SVGID_15_"  style="overflow:visible;"/>
	</clipPath>
	<g class="st7">
		<defs>
			<rect id="SVGID_17_" x="9.62" y="-48.53" width="145.12" height="258.12"/>
		</defs>
		<clipPath id="SVGID_18_">
			<use xlink:href="#SVGID_17_"  style="overflow:visible;"/>
		</clipPath>
		<rect x="41.69" y="34.45" class="st8" width="74.45" height="96.5"/>
	</g>
</g>
<g>
	<defs>
		<path id="SVGID_19_" d="M67.89,44.85c-0.43,3.71-2.68,7.73-4.67,10.86c-0.22,0.34-0.45,0.68-0.8,0.88
			c-0.36,0.2-0.79,0.22-1.21,0.22c-0.87,0.02-1.75,0.02-2.58-0.25c-0.29-0.08-0.56-0.23-0.77-0.45c-0.31-0.34-0.37-0.84-0.37-1.3
			c-0.02-3.03,2.2-5.65,4.69-7.38C63.65,46.41,66.08,44.69,67.89,44.85 M63.4,129.07c1.83,1.58,4.27,2.24,6.64,1.81
			c-0.02-0.46-0.46-0.77-0.87-1.02c-1.65-0.97-4.58-3.91-6.39-4.22C59.94,125.15,62.09,127.91,63.4,129.07"/>
	</defs>
	<clipPath id="SVGID_20_">
		<use xlink:href="#SVGID_19_"  style="overflow:visible;"/>
	</clipPath>
	<g class="st9">
		<defs>
			<rect id="SVGID_21_" x="9.62" y="-48.53" width="145.12" height="258.12"/>
		</defs>
		<clipPath id="SVGID_22_">
			<use xlink:href="#SVGID_21_"  style="overflow:visible;"/>
		</clipPath>
		<rect x="56.51" y="43.87" class="st10" width="14.49" height="88.1"/>
	</g>
</g>
<g>
	<defs>
		<polygon id="SVGID_23_" points="115.27,48.57 103.72,53.8 105.93,42.72 96.59,34.87 109.49,33.26 115.27,23.18 121.04,33.26 
			133.94,34.87 124.6,42.72 126.81,53.8 		"/>
	</defs>
	<clipPath id="SVGID_24_">
		<use xlink:href="#SVGID_23_"  style="overflow:visible;"/>
	</clipPath>
	<g class="st11">
		<defs>
			<rect id="SVGID_25_" x="9.62" y="-48.53" width="145.12" height="258.12"/>
		</defs>
		<clipPath id="SVGID_26_">
			<use xlink:href="#SVGID_25_"  style="overflow:visible;"/>
		</clipPath>
		<rect x="95.62" y="22.21" class="st12" width="39.29" height="32.56"/>
	</g>
</g>
<g>
	<defs>
		<rect id="SVGID_27_" x="9.62" y="-48.53" width="145.12" height="258.12"/>
	</defs>
	<clipPath id="SVGID_28_">
		<use xlink:href="#SVGID_27_"  style="overflow:visible;"/>
	</clipPath>
	<g class="st13">
		<text transform="matrix(1 0 0 1 107.0412 42.3304)" class="st14 st15 st16">+XP</text>
	</g>
</g>
</svg>
