<svg xmlns="http://www.w3.org/2000/svg" viewBox="0 0 234.82 374.55"><defs><style>.cls-1,.cls-2{fill:none;stroke-miterlimit:10;stroke-width:15px;}.cls-1{stroke:#d7a5d2;}.cls-2{stroke:#d6b1d3;}.cls-3{fill:#d6b1d3;}.cls-4{fill:#828caa;}.cls-5{fill:#131543;}.cls-6{fill:#6f778d;}.cls-7{fill:#f3e5d4;}.cls-8{fill:#626a7f;}</style></defs><title>intetional</title><g id="Layer_2" data-name="Layer 2"><g id="Layer_1-2" data-name="Layer 1"><line class="cls-1" x1="133.24" y1="227.99" x2="133.24" y2="364.49"/><path class="cls-2" d="M107.36,224.11a97.55,97.55,0,0,0-30.47,9c-6.48,3.13-13,7.39-15.82,14-4.2,9.76,1.34,21.58,10.05,27.66s19.73,7.68,30.33,8.43a254.46,254.46,0,0,0,45.85-.89"/><path class="cls-3" d="M169.81,122.94l-2.3,1.28-46-3.83L65,123.45l-3-17.16c-.9-6-1.7-11.94-2.51-17.92C58.64,82,57.83,75.62,57,69.25c-.88-6.56-1.75-13.13-2.74-19.68-.33-2.14-.29-4.35-1.2-6.38.16-3-.07-6.09.77-9.13C56,26.22,63.84,20,72,20c7,0,13.91,0,20.87,0,1.43,0,1.87-.4,1.13-1.74a14.38,14.38,0,0,1-1.86-4.62c-.82-5.39,1-7.41,6.8-7.23A9.69,9.69,0,0,1,103.18,8c3.13,1.81,5.18,4.67,7.63,7.6a5.68,5.68,0,0,0,0-1.29,17.5,17.5,0,0,1-.68-6.92c.24-2.58.9-5,3.44-6.4,3.42-1.87,10-.86,12.65,2a7.38,7.38,0,0,1,2,4.88c.08,2.16-.62,4.13-1.08,6.25,2-2.12,3.75-4.35,6.34-5.73,2.27-1.21,4.37-1.24,5.95.14,2.62,2.27,3,3.74,1.76,6.65a13.88,13.88,0,0,1-2,3.22c-.31.38-1,.66-.69,1.28s1,.27,1.48.27q11.34,0,22.67,0c6.94,0,12.27,2.94,16.23,8.59C182,33,182.62,38,182.39,43.23a3.23,3.23,0,0,0-.4.87c-1,6.9-1.87,13.8-2.85,20.7-.89,6.37-1.88,12.73-2.77,19.11-1.05,7.49-2,15-3.1,22.47M116.74,65.25a40.65,40.65,0,0,0,5.41,0,40.61,40.61,0,0,0,21.72-9.86c1.63-1.42,3.44-2.76,3.22-5.43-.2-2.4-1-3.94-3-4.71a4.93,4.93,0,0,0-5.53,1.12,29.71,29.71,0,0,1-22.2,8.93,29.35,29.35,0,0,1-20.47-8.73c-2.28-2.24-5.51-2.29-7.51-.21-2.2,2.3-2.12,5,.33,7.43C96.46,61.4,105.78,65.38,116.74,65.25ZM135,38.54c.08-.93-.14-1.95-1.41-2.07s-1.65,1-1.72,2a4.44,4.44,0,0,1-.9,2.6c-1.43,1.76-3.17,2.91-5.55,2.4a5.52,5.52,0,0,1-4.52-4.94c-.16-1-.35-2.15-1.69-2.05s-1.53,1.24-1.46,2.39c.23,4.06,4.53,8,8.68,7.93S134.86,42.73,135,38.54Zm-18.41.13c0-.91.18-2.05-1.13-2.2s-1.71.79-1.8,1.92c0,.19-.11.38-.15.58a5.73,5.73,0,0,1-5.3,4.65,5.67,5.67,0,0,1-5.59-4.57c-.28-1.21-.15-2.94-2-2.52s-1.29,2-1,3.32c0,.13,0,.26.07.39a8.54,8.54,0,0,0,8.85,6.44A8.4,8.4,0,0,0,116.56,38.67Z"/><path class="cls-4" d="M116.74,65.25c-11,.13-20.28-3.85-28.06-11.5-2.45-2.4-2.53-5.13-.33-7.43,2-2.08,5.23-2,7.51.21a29.35,29.35,0,0,0,20.47,8.73,29.71,29.71,0,0,0,22.2-8.93,4.93,4.93,0,0,1,5.53-1.12c2.08.77,2.83,2.31,3,4.71.22,2.67-1.59,4-3.22,5.43a40.61,40.61,0,0,1-21.72,9.86A40.65,40.65,0,0,1,116.74,65.25Zm.93-3.32a37.54,37.54,0,0,0,12.65-2.47,36,36,0,0,0,12.52-8.14c.52-.52,1.12-1,.74-1.9a1.49,1.49,0,0,0-1.19-1c-.92-.14-1.5.48-2.06,1a30.68,30.68,0,0,1-7.08,5.23c-13.19,7.07-28.38,5-39.56-5.24-.87-.8-1.76-1.72-2.86-.46s0,2,.76,2.7A36.9,36.9,0,0,0,117.67,61.93Z"/><path class="cls-5" d="M135,38.54c-.11,4.19-4.35,8.19-8.57,8.25s-8.45-3.87-8.68-7.93c-.07-1.15,0-2.29,1.46-2.39s1.53,1,1.69,2.05a5.52,5.52,0,0,0,4.52,4.94c2.38.51,4.12-.64,5.55-2.4a4.44,4.44,0,0,0,.9-2.6c.07-1,.38-2.12,1.72-2S135.05,37.61,135,38.54Z"/><path class="cls-5" d="M116.56,38.68a8.4,8.4,0,0,1-8,8,8.54,8.54,0,0,1-8.85-6.44c0-.13,0-.26-.07-.39-.31-1.31-.88-2.91,1-3.32s1.73,1.31,2,2.52a5.67,5.67,0,0,0,5.59,4.57,5.73,5.73,0,0,0,5.3-4.65c0-.2.13-.39.15-.58.09-1.13.5-2.06,1.8-1.92S116.53,37.76,116.56,38.68Z"/><path class="cls-5" d="M117.67,61.93A36.9,36.9,0,0,1,91.59,51.71c-.76-.72-1.78-1.53-.76-2.7s2-.34,2.86.46c11.18,10.29,26.37,12.31,39.56,5.24a30.68,30.68,0,0,0,7.08-5.23c.56-.55,1.14-1.17,2.06-1a1.49,1.49,0,0,1,1.19,1c.38.86-.22,1.38-.74,1.9a36,36,0,0,1-12.52,8.14A37.54,37.54,0,0,1,117.67,61.93Z"/><path class="cls-2" d="M54.55,46.77C35.29,51,9.36,57.39,7.58,72.19c-.74,6.09,3.86,12.15,10.91,16.43C33,97.44,54.21,98.69,73.43,99.68"/><path class="cls-2" d="M173,46.77C195.24,51,225.17,57.4,227.23,72.19c.85,6.09-4.46,12.15-12.61,16.43-16.74,8.82-41.23,10.07-63.41,11.06"/><path class="cls-6" d="M146.07,298.89a5,5,0,0,0,9.9-1.39l-2.57-18.29a3.81,3.81,0,0,0-4.31-3.26l-6.12.86Z"/><path class="cls-6" d="M148.87,364.24a5,5,0,1,1,.17,10l-18.47.32a3.82,3.82,0,0,1-3.89-3.76l-.11-6.17Z"/><path class="cls-7" d="M63.16,113.48C67,136.33,78.93,206.49,80.35,215c2.3,13.8,15.11,23.26,37.31,23.26S151.15,228.76,154,216c1.83-8.34,3.39-9.53,18-102.5Z"/><path class="cls-8" d="M78.75,205.5c.79,4.64,1.35,8,1.6,9.46,2.3,13.8,15.11,23.26,37.31,23.26S151.15,228.76,154,216c.65-2.94,1.26-5,2.42-10.48Z"/></g></g></svg>