<svg xmlns="http://www.w3.org/2000/svg" viewBox="0 0 296.98 379.25"><defs><style>.cls-1{fill:#d6b1d3;}.cls-2{fill:#626a7f;}.cls-3{fill:#f3e5d4;}.cls-4{fill:#131543;}.cls-5{fill:#6f778d;}</style></defs><title>playful</title><g id="Layer_2" data-name="Layer 2"><g id="Layer_1-2" data-name="Layer 1"><path class="cls-1" d="M206.8,43.53c0,14.18,3,36.61-7.46,44.56-7.3,5.52-26.22-1-36.07-1-12,0-22.9,10.73-30.78,2.86s-12.75-34.36-12.75-46.38a43.53,43.53,0,0,1,87.06,0Z"/><path class="cls-1" d="M207.87,175.53a63.86,63.86,0,1,0,0-127.72H114.39a63.86,63.86,0,0,0,0,127.72"/><path class="cls-2" d="M5.93,235.93H114.16c5,0,10,.12,15,0a1.47,1.47,0,0,1,.21,0,5.81,5.81,0,0,0,0-11.61H21.15c-5,0-10-.13-15,0H5.93a5.81,5.81,0,0,0,0,11.61Z"/><path class="cls-2" d="M165.32,242.25V356.77c0,5.28-.13,10.57,0,15.84v.22a5.81,5.81,0,1,0,11.61,0V258.31c0-5.28.12-10.57,0-15.84a1.62,1.62,0,0,1,0-.22,5.81,5.81,0,0,0-11.61,0Z"/><path class="cls-2" d="M79.35,33.16a61.43,61.43,0,0,0-6.28,3.9A119.28,119.28,0,0,0,57.36,49.88,113.94,113.94,0,0,0,40,71.28a102.69,102.69,0,0,0-12.79,30.56,97.59,97.59,0,0,0-1.79,37.48,71.35,71.35,0,0,0,11.1,28.17A89.69,89.69,0,0,0,56.41,188.6a125,125,0,0,0,24.28,14.74,150.15,150.15,0,0,0,24.47,8.92,107.78,107.78,0,0,0,20.08,3.55c1.14.09,2.28.13,3.42.14a5.81,5.81,0,1,0,0-11.61,62.84,62.84,0,0,1-7.38-.54c-1.19-.14,1.83.26.34,0l-1.05-.16-2.37-.39c-1.63-.29-3.25-.62-4.86-1a139.8,139.8,0,0,1-22.17-7c-.47-.19-.93-.4-1.41-.58,2,.78.21.08-.26-.12-1-.45-2-.91-3.07-1.38q-3-1.38-5.9-2.91A120.14,120.14,0,0,1,69,183.47c-.9-.61-1.8-1.23-2.68-1.87-.45-.31-.89-.64-1.32-1s-2.24-1.75-.57-.42c-1.71-1.36-3.41-2.74-5.05-4.2a83.85,83.85,0,0,1-9.5-9.9l-1-1.29c1.31,1.63,0,0-.25-.37-.71-1-1.4-2-2.06-3a66.81,66.81,0,0,1-3.56-6c-.53-1-1-2-1.5-3-.24-.52-.47-1-.7-1.55s-.53-1.41.14.34c-.13-.36-.29-.71-.42-1.06a66.3,66.3,0,0,1-2.29-6.85,67.68,67.68,0,0,1-1.55-7.3c-.05-.3-.09-.61-.14-.91-.17-1.17.18,1.5,0,.33-.07-.62-.15-1.23-.21-1.85-.13-1.36-.22-2.73-.27-4.1-.12-3-.06-6.06.12-9.08.09-1.49.2-3,.36-4.47q.1-1.1.24-2.19c.06-.41.36-1.59,0,.1.1-.46.13-1,.21-1.42A96.34,96.34,0,0,1,41,95.93c.42-1.23.86-2.44,1.33-3.65.23-.59.46-1.18.7-1.77.15-.36.65-1.43-.1.23.18-.38.33-.77.5-1.15Q45,86.23,46.68,83a101.66,101.66,0,0,1,7.63-12.13c.33-.44.65-.88,1-1.31l.49-.64c-1.13,1.51-.51.65-.25.33.7-.9,1.42-1.79,2.15-2.66q2-2.42,4.17-4.71Q65.72,57.76,70,54q1.85-1.62,3.78-3.16l.86-.68c1.17-.92-1.13.86-.19.15.57-.44,1.15-.88,1.74-1.31a94.76,94.76,0,0,1,8.64-5.63l.39-.21a5.86,5.86,0,0,0,2.09-7.95,6,6,0,0,0-8-2.08Z"/><path class="cls-2" d="M128.66,192.3h67.79a0,0,0,0,1,0,0v27.85a22.1,22.1,0,0,1-22.1,22.1H150.77a22.1,22.1,0,0,1-22.1-22.1V192.3A0,0,0,0,1,128.66,192.3Z"/><path class="cls-3" d="M199.38,193.73H120.74a22,22,0,0,1-22-22V150.84c0-12.18,33.53-19.19,61.72-19.19s61,7,61,19.19v20.85A22,22,0,0,1,199.38,193.73Z"/><circle class="cls-1" cx="124.38" cy="149.49" r="27.83"/><path class="cls-2" d="M124.38,181.6a32.11,32.11,0,1,1,32.11-32.11A32.15,32.15,0,0,1,124.38,181.6Zm0-55.66a23.55,23.55,0,1,0,23.55,23.55A23.58,23.58,0,0,0,124.38,125.94Z"/><circle class="cls-1" cx="196.45" cy="149.49" r="27.83"/><path class="cls-2" d="M196.45,181.6a32.11,32.11,0,1,1,32.11-32.11A32.15,32.15,0,0,1,196.45,181.6Zm0-55.66A23.55,23.55,0,1,0,220,149.49,23.58,23.58,0,0,0,196.45,125.94Z"/><path class="cls-4" d="M140.44,148.78c-.48,12.95-23.07,12.95-23.55,0,0-1.38-2.19-1.38-2.14,0,.59,15.72,27.24,15.72,27.83,0,0-1.38-2.09-1.38-2.14,0Z"/><path class="cls-4" d="M204.66,148.78c-.49,12.95-23.07,12.95-23.55,0-.05-1.38-2.19-1.38-2.14,0,.59,15.72,27.24,15.72,27.83,0,0-1.38-2.09-1.38-2.14,0Z"/><path class="cls-4" d="M151.67,169.68c5.06,2.41,12.09,2.09,17.24.11,1.27-.49.72-2.56-.57-2.07-4.58,1.77-11.05,2.27-15.59.11-1.24-.59-2.32,1.26-1.08,1.85Z"/><path class="cls-2" d="M153.78,153.47l-3.16-8a28.59,28.59,0,0,1,19.59,0l-3.18,8a20.07,20.07,0,0,0-13.25,0Z"/><path class="cls-1" d="M53.64,224.32H6.29a5.81,5.81,0,1,0,0,11.61H53.64Z"/><path class="cls-1" d="M165.35,325.1c0,.21,0,.42,0,.64v47.09a5.81,5.81,0,1,0,11.61,0V325.74c0-.22,0-.43,0-.64Z"/><path class="cls-2" d="M236.19,43.19A59.89,59.89,0,0,1,242.31,47c1,.7,2.05,1.42,3.05,2.16.54.4,1.08.8,1.61,1.21.94.71-1.36-1.07-.19-.15l1,.8c2.7,2.16,5.31,4.46,7.8,6.86a109.63,109.63,0,0,1,8.31,8.93q1,1.22,2,2.46c.26.32.88,1.18-.25-.33l.49.64,1.13,1.53q2.07,2.83,3.94,5.82a98.58,98.58,0,0,1,6.87,13c.13.29.24.58.37.87-.75-1.66-.25-.59-.09-.23.24.59.47,1.18.7,1.77.51,1.31,1,2.63,1.43,4q1.33,4,2.33,8c.69,2.84,1.25,5.71,1.69,8.59.05.36.07.73.15,1.07-.38-1.69-.07-.51,0-.1.09.73.18,1.46.25,2.19.17,1.61.29,3.23.38,4.85.16,3,.22,6,.09,9-.06,1.26-.14,2.52-.27,3.78-.06.62-.13,1.23-.2,1.85-.14,1.17.22-1.5,0-.33-.06.4-.11.81-.18,1.21a66.59,66.59,0,0,1-3.89,14.12l-.33.79c.68-1.75.31-.73.15-.34s-.46,1-.7,1.55c-.52,1.1-1.06,2.19-1.63,3.26q-1.65,3.07-3.58,6c-.62.92-1.25,1.83-1.91,2.72-.29.39-1.56,2-.25.37-.41.5-.8,1-1.21,1.51q-2.17,2.66-4.57,5.13t-5,4.74c-.75.66-1.51,1.32-2.28,2l-1.28,1c-.4.32-2.25,1.72-.54.44a127.05,127.05,0,0,1-23,13.72c-.94.43-1.88.86-2.83,1.27-.47.2-2.3.9-.27.12-.55.21-1.09.45-1.64.67q-2.88,1.17-5.82,2.21-5.49,2-11.13,3.46-5,1.32-10,2.23c-.72.13-1.45.25-2.18.36l-1.06.16c-1.5.21,1.67-.21.18,0-1.31.16-2.62.3-3.94.39-1.09.08-2.18.12-3.28.13a5.81,5.81,0,0,0,0,11.61,85.05,85.05,0,0,0,18.31-2.42,138.81,138.81,0,0,0,22.62-7.14,136,136,0,0,0,24.86-13,97.47,97.47,0,0,0,21.58-19.45,75.9,75.9,0,0,0,14.27-27.29c3.26-11.85,3.13-24.22,1.38-36.31A101.57,101.57,0,0,0,285,77.66a110.52,110.52,0,0,0-16.84-23.55,120.29,120.29,0,0,0-16.78-14.86,77.48,77.48,0,0,0-8.93-5.85l-.43-.24c-2.69-1.4-6.43-.78-7.94,2.08-1.41,2.68-.79,6.45,2.08,7.95Z"/><path class="cls-5" d="M190.18,367.64a5.63,5.63,0,1,1,.19,11.25l-20.81.36a4.31,4.31,0,0,1-4.38-4.23l-.12-6.95Z"/><path class="cls-5" d="M11.62,211a5.63,5.63,0,1,0-11.26-.2L0,231.62A4.3,4.3,0,0,0,4.23,236l7,.12Z"/></g></g></svg>