<svg xmlns="http://www.w3.org/2000/svg" viewBox="0 0 128.04 157.89"><defs><style>.cls-1,.cls-2,.cls-6,.cls-8{fill:none;stroke-miterlimit:10;}.cls-1{stroke:#689fc1;}.cls-1,.cls-2,.cls-6{stroke-width:11px;}.cls-2,.cls-8{stroke:#534342;}.cls-3{fill:#534342;}.cls-4{fill:#893030;}.cls-5{fill:#9ae2bb;}.cls-6{stroke:#9ae2bb;}.cls-7{fill:#5aad7b;}.cls-8{stroke-width:3px;}</style></defs><title>reflection_1</title><g id="Layer_2" data-name="Layer 2"><g id="Layer_1-2" data-name="Layer 1"><line class="cls-1" x1="52.32" y1="118.77" x2="52.32" y2="150.99"/><line class="cls-2" x1="52.26" y1="152.39" x2="35.07" y2="152.39"/><circle class="cls-3" cx="52.84" cy="152.39" r="5.49"/><circle class="cls-3" cx="35.07" cy="152.39" r="5.49"/><line class="cls-1" x1="75.72" y1="118.77" x2="75.72" y2="150.99"/><line class="cls-2" x1="75.79" y1="152.39" x2="92.98" y2="152.39"/><circle class="cls-3" cx="75.2" cy="152.39" r="5.49"/><circle class="cls-3" cx="92.98" cy="152.39" r="5.49"/><rect class="cls-4" x="16.47" y="101.19" width="95.1" height="27.83" rx="10"/><path class="cls-5" d="M1.21,92.7l28-63.76a14.11,14.11,0,0,1,12.91-8.43H85.93a14.1,14.1,0,0,1,12.91,8.43l28,63.76a14.1,14.1,0,0,1-12.91,19.77H14.11A14.09,14.09,0,0,1,1.21,92.7Z"/><line class="cls-6" x1="61.26" y1="30.74" x2="53.78" y2="15.26"/><circle class="cls-5" cx="61.51" cy="31.26" r="5.49"/><circle class="cls-5" cx="53.78" cy="15.26" r="5.49"/><line class="cls-6" x1="63.64" y1="22.07" x2="78.33" y2="13.16"/><circle class="cls-3" cx="63.14" cy="22.38" r="5.49"/><circle class="cls-5" cx="78.33" cy="13.16" r="5.49"/><line class="cls-6" x1="63.15" y1="22.68" x2="63.4" y2="5.49"/><circle class="cls-5" cx="63.14" cy="23.26" r="5.49"/><circle class="cls-5" cx="63.4" cy="5.49" r="5.49"/><circle class="cls-7" cx="20.21" cy="72.14" r="2.02"/><circle class="cls-7" cx="25.03" cy="84.68" r="3.67"/><circle class="cls-7" cx="19.11" cy="78.02" r="2.3"/><circle class="cls-7" cx="28.67" cy="76.85" r="2.39"/><circle class="cls-7" cx="102.64" cy="72.28" r="2.02"/><circle class="cls-7" cx="96.44" cy="84.2" r="3.67"/><circle class="cls-7" cx="97.51" cy="75.35" r="2.3"/><circle class="cls-7" cx="104.71" cy="81.74" r="2.39"/><path class="cls-8" d="M50.59,80.66s12.67,20.85,26.86-.13"/><line class="cls-8" x1="44.12" y1="61.49" x2="58.83" y2="61.49"/><line class="cls-8" x1="69.22" y1="61.49" x2="83.92" y2="61.49"/></g></g></svg>