<?xml version="1.0" encoding="utf-8"?>
<!-- Generator: Adobe Illustrator 23.0.3, SVG Export Plug-In . SVG Version: 6.00 Build 0)  -->
<svg version="1.1" id="Layer_1" xmlns="http://www.w3.org/2000/svg" xmlns:xlink="http://www.w3.org/1999/xlink" x="0px" y="0px"
	 viewBox="0 0 288 288" style="enable-background:new 0 0 288 288;" xml:space="preserve">
<style type="text/css">
	.st0{fill:none;}
	.st1{fill:none;stroke:#000000;stroke-width:2;stroke-miterlimit:10;}
	.st2{fill:none;stroke:#000000;stroke-width:3;stroke-miterlimit:10;}
</style>
<path class="st0" d="M101.75,121.94c0,0,22.19,5.16,4.59,15.65"/>
<path class="st1" d="M89.37,37.57c0,0-31.83,4.87-32.37,56.28c0,0,3.49,6.79,2.12,23.01c-1.37,16.22,25.01,56.67,40.06,54.72
	c0,0,1.76-16.22,0-17.78c-1.76-1.56-14.66,0.2-17.2-8.4c0,0,11.33-9.38,31.07-6.06c0,0-15.24-11.14-24.62-2.93
	c0,0-3.13-6.84-9.18,1.76c-6.06,8.6,2.59,7.95,2.59,7.95s18.32,8.1,26.29-5.92"/>
<path class="st1" d="M110.12,135.54l3.62-5.43c0.29-0.43,0.29-1-0.01-1.43c-1.32-1.9-5.38-6.85-11.97-7.02
	c-8.16-0.2-22.44,0-22.44,0s-10.18,1.22,3.63-28.06c0.03-0.06,0.05-0.12,0.07-0.19c0.4-1.44,5.24-19.14-0.43-20.51
	c-4.65-1.12-17.97-1.24-24.56,1.53c-1.34,0.56-0.82,2.58,0.63,2.43c6.36-0.62,17.63-0.99,17.05,4.32c-0.02,0.19-0.01,0.38,0.05,0.56
	l1.05,3.14c0.39,1.17,2.07,1.16,2.42-0.03c2.33-7.89,10.55-22.9,39.28-19.43c0.6,0.07,1.07,0.56,1.12,1.16l0.82,9.63
	c0.06,0.74-0.51,1.37-1.24,1.38c-3.86,0.04-14.98,0.47-20.83,4c-1.01,0.61-2.24-0.37-1.86-1.48c1.41-4.1,5.9-10.56,20.09-13.14
	c0.64-0.12,1.11-0.69,1.05-1.34c-0.33-4.08-2.96-17.87-23.23-22.3c-1.4-0.3-1.3-2.33,0.12-2.5c6.22-0.74,17.8,2.08,31.73,25.34
	c21.01,35.09-6.12,120.16-24.89,120.36c16.69-10.68,31.12-14.92,36.4-13.79c3.98,0.85,6.74,2.44,6.74,2.44
	c1.96,1.13,3.62,2.53,5.56,4.17c3.07,2.6,4.63,4.36,6.55,3.99c0.62-0.12,1.04-0.42,1.26-0.58c11.55-8.28,12.83-9.11,14.09-9.69
	c8.23-3.79,18.87,1.61,19.83,2.11c4,2.09,4.32,3.7,6.43,3.46c5.35-0.61,7.72-12.88,14.31-11.9c5.51,0.82-12.43-29.66-28.71-53.11
	c-16.24-23.39,0.97-101.62-77.25-95.01c-0.38,0.03-0.73,0.23-0.94,0.54c-1.59,2.31-9.42,12.11-29.07,13.67
	C54.32,34.6,44.4,99.74,44.35,117.3c0,0.1-0.01,0.18-0.03,0.28c-0.7,2.93-12.42,51.2-19.86,50.76c0,0,48.99-0.89,60.24,12.53
	c0.28,0.34,0.73,0.44,1.17,0.4c1.36-0.13,4.04,2.41-0.65,28.82c0,0,0.48-17.65,9.39-16.88c0,0,41.08,4.93,56.1-1.75
	c0.77-0.34,1.66,0.11,1.78,0.95c0.87,6.07,4.6,26.1,16.01,29.58c11.55,3.53,23.44,27.81,103.12,46.68"/>
<path class="st1" d="M57.88,90.56c0,0,0.75-2.6,2.99-4.44c1.58-1.3,3.9-2.22,7.22-1.59c2.43,0.46,5.4,1.75,9,4.34"/>
<circle class="st2" cx="67.49" cy="90.28" r="3.21"/>
<polygon class="st1" points="55.26,85.14 54.13,100.91 76.47,95.89 77.53,81.03 "/>
<polygon class="st1" points="90.68,80.16 89.49,96.06 112.05,88.24 113,80.16 114.01,71.64 "/>
<line class="st1" x1="129.61" y1="75.73" x2="112.91" y2="80.97"/>
<line class="st1" x1="89.8" y1="87.65" x2="77.3" y2="89.31"/>
</svg>
