<svg id="Layer_1" data-name="Layer 1" xmlns="http://www.w3.org/2000/svg" viewBox="0 0 247.44 252.4"><defs><style>.cls-1,.cls-2,.cls-3{fill:none;}.cls-2,.cls-3{stroke:#4f4f4f;stroke-miterlimit:10;}.cls-2{stroke-width:2px;}.cls-3{stroke-width:3px;}</style></defs><title>self-portrait</title><path class="cls-1" d="M101.75,121.94s22.19,5.17,4.59,15.66" transform="translate(-24.4 -17.23)"/><path class="cls-2" d="M89.37,37.57S57.53,42.44,57,93.85c0,0,3.49,6.8,2.12,23s25,56.67,40.06,54.72c0,0,1.76-16.22,0-17.79S84.52,154,82,145.4c0,0,11.33-9.38,31.07-6.06,0,0-15.24-11.14-24.62-2.93,0,0-3.13-6.84-9.19,1.76s2.59,8,2.59,8,18.32,8.11,26.29-5.92" transform="translate(-24.4 -17.23)"/><path class="cls-2" d="M110.12,135.54l3.61-5.43a1.27,1.27,0,0,0,0-1.43c-1.32-1.9-5.38-6.85-12-7-8.16-.2-22.44,0-22.44,0s-10.18,1.22,3.63-28.06a1.34,1.34,0,0,0,.07-.18c.4-1.44,5.24-19.14-.43-20.51-4.65-1.13-18-1.24-24.57,1.53a1.27,1.27,0,0,0,.63,2.43c6.36-.62,17.63-1,17,4.31a1.37,1.37,0,0,0,0,.57l1,3.14a1.26,1.26,0,0,0,2.41,0C81.52,77,89.74,62,118.47,65.43a1.28,1.28,0,0,1,1.12,1.16l.81,9.63a1.26,1.26,0,0,1-1.24,1.38c-3.86,0-15,.47-20.83,4a1.27,1.27,0,0,1-1.86-1.48c1.41-4.1,5.9-10.56,20.1-13.15a1.26,1.26,0,0,0,1.05-1.34c-.33-4.08-3-17.87-23.23-22.3a1.27,1.27,0,0,1,.11-2.5c6.22-.74,17.8,2.08,31.73,25.34,21,35.09-6.12,120.16-24.89,120.37,16.69-10.68,31.12-14.92,36.41-13.79a25.51,25.51,0,0,1,6.73,2.44,38.44,38.44,0,0,1,5.57,4.17c3.07,2.6,4.63,4.37,6.55,4a3.08,3.08,0,0,0,1.26-.58c11.55-8.28,12.83-9.11,14.09-9.69,8.23-3.79,18.87,1.61,19.83,2.11,4,2.09,4.33,3.7,6.44,3.46,5.34-.61,7.72-12.88,14.31-11.9,5.51.81-12.43-29.66-28.71-53.12s1-101.62-77.25-95a1.28,1.28,0,0,0-.94.54C104,21.47,96.21,31.28,76.56,32.84,54.32,34.6,44.4,99.74,44.35,117.3a1.41,1.41,0,0,1,0,.28c-.71,2.92-12.42,51.2-19.86,50.75,0,0,49-.89,60.23,12.53a1.33,1.33,0,0,0,1.17.4c1.36-.12,4,2.41-.65,28.82,0,0,.49-17.65,9.39-16.89,0,0,41.08,4.93,56.1-1.75a1.26,1.26,0,0,1,1.78.95c.88,6.07,4.6,26.1,16,29.58s23.44,27.82,103.12,46.69" transform="translate(-24.4 -17.23)"/><path class="cls-2" d="M57.88,90.56a10,10,0,0,1,3-4.44,8.38,8.38,0,0,1,7.23-1.59,23.57,23.57,0,0,1,9,4.34" transform="translate(-24.4 -17.23)"/><circle class="cls-3" cx="43.09" cy="73.05" r="3.21"/><polygon class="cls-2" points="30.86 67.91 29.73 83.68 52.07 78.67 53.13 63.8 30.86 67.91"/><polygon class="cls-2" points="66.28 62.94 65.09 78.84 87.65 71.01 88.6 62.94 89.61 54.41 66.28 62.94"/><line class="cls-2" x1="105.21" y1="58.5" x2="88.51" y2="63.74"/><line class="cls-2" x1="65.4" y1="70.42" x2="52.91" y2="72.08"/></svg>