<svg xmlns="http://www.w3.org/2000/svg" viewBox="0 0 324.64 308.9"><defs><style>.cls-1{fill:#5b5b5b;}.cls-2{fill:#7c7c7c;}.cls-11,.cls-3,.cls-4,.cls-6,.cls-8{fill:none;}.cls-3,.cls-8{stroke:#fb818b;}.cls-10,.cls-11,.cls-3,.cls-4,.cls-6,.cls-8{stroke-miterlimit:10;}.cls-3,.cls-4,.cls-6{stroke-width:14px;}.cls-11,.cls-4{stroke:#534342;}.cls-5{fill:#fb818b;}.cls-6{stroke:#689fc1;}.cls-10,.cls-7{fill:#534342;}.cls-10,.cls-8{stroke-width:8px;}.cls-9{fill:#ea4960;}.cls-10{stroke:#eae8e4;}.cls-11{stroke-width:4px;}</style></defs><title>set</title><g id="Layer_2" data-name="Layer 2"><g id="Layer_1-2" data-name="Layer 1"><rect class="cls-1" y="151.72" width="7.49" height="24.12"/><rect class="cls-1" x="43.5" y="153.08" width="7.49" height="24.12" transform="translate(94.49 330.29) rotate(180)"/><rect class="cls-1" x="21.75" y="146.45" width="7.49" height="36.02" transform="translate(189.96 138.97) rotate(90)"/><rect class="cls-2" x="7.49" y="146.45" width="7.49" height="36.02"/><rect class="cls-2" x="36.02" y="146.45" width="7.49" height="36.02" transform="translate(79.52 328.92) rotate(180)"/><path class="cls-3" d="M88.94,236.88s-75.11,12.88-69-32.81c5-37,5.5-40.45,5.5-40.45"/><path class="cls-4" d="M88.94,236.88s-75.13,12.88-69-32.81c3.6-26.73,3.82-28.26,3.82-28.26"/><ellipse class="cls-5" cx="25.49" cy="163.6" rx="6.8" ry="7" transform="translate(-67.89 26.87) rotate(-25.47)"/><rect class="cls-1" x="317.16" y="151.72" width="7.49" height="24.12" transform="translate(641.8 327.56) rotate(-180)"/><rect class="cls-1" x="273.65" y="153.08" width="7.49" height="24.12"/><rect class="cls-1" x="295.4" y="146.45" width="7.49" height="36.02" transform="translate(463.61 -134.68) rotate(90)"/><rect class="cls-2" x="309.67" y="146.45" width="7.49" height="36.02" transform="translate(626.82 328.92) rotate(-180)"/><rect class="cls-2" x="281.14" y="146.45" width="7.49" height="36.02"/><path class="cls-3" d="M235.7,236.88s75.11,12.88,69-32.81c-5-37-5.5-40.45-5.5-40.45"/><path class="cls-4" d="M235.7,236.88s75.13,12.88,69-32.81c-3.6-26.73-3.81-28.26-3.81-28.26"/><ellipse class="cls-5" cx="299.15" cy="163.6" rx="7" ry="6.8" transform="translate(22.79 363.3) rotate(-64.53)"/><line class="cls-6" x1="147.73" y1="235.29" x2="147.73" y2="300.11"/><line class="cls-4" x1="147.65" y1="301.9" x2="125.74" y2="301.9"/><circle class="cls-7" cx="148.4" cy="301.9" r="7"/><circle class="cls-7" cx="125.74" cy="301.9" r="7"/><line class="cls-6" x1="177.57" y1="235.29" x2="177.57" y2="300.11"/><line class="cls-4" x1="177.65" y1="301.9" x2="199.56" y2="301.9"/><circle class="cls-7" cx="176.9" cy="301.9" r="7"/><circle class="cls-7" cx="199.56" cy="301.9" r="7"/><rect class="cls-7" x="79.64" y="211.68" width="166.02" height="42.72" rx="10"/><line class="cls-8" x1="162.27" y1="25.27" x2="157.02" y2="4"/><circle class="cls-5" cx="162.45" cy="26" r="4"/><circle class="cls-5" cx="157.02" cy="4" r="4"/><line class="cls-8" x1="160.93" y1="31.26" x2="169.26" y2="11"/><circle class="cls-5" cx="160.65" cy="31.95" r="4"/><circle class="cls-5" cx="169.26" cy="11" r="4"/><path class="cls-5" d="M46.05,202.39,147.05,28a18,18,0,0,1,31.2,0l101,174.4a18,18,0,0,1-15.6,27.06h-202A18,18,0,0,1,46.05,202.39Z"/><circle class="cls-9" cx="94.32" cy="165.99" r="4.63"/><circle class="cls-9" cx="118.73" cy="162.93" r="5.02"/><circle class="cls-9" cx="109.1" cy="186.96" r="4.91"/><circle class="cls-9" cx="230.98" cy="165.99" r="4.63"/><circle class="cls-9" cx="206.57" cy="162.93" r="5.02"/><circle class="cls-9" cx="216.2" cy="186.96" r="4.91"/><circle class="cls-10" cx="146.01" cy="128.49" r="13.7"/><circle class="cls-10" cx="178.75" cy="128.49" r="13.7"/><polygon class="cls-5" points="123.46 109.49 162.65 118.51 201.84 109.22 123.46 109.49"/><path class="cls-11" d="M176.3,176.11s-14.07-14.83-27.3-2.18"/></g></g></svg>