<svg id="Layer_1" data-name="Layer 1" xmlns="http://www.w3.org/2000/svg" viewBox="0 0 201.5 360.76"><defs><style>.cls-1{fill:#ef6d25;}.cls-2{fill:#ffd504;}.cls-3{fill:#fcff93;}.cls-4{fill:#c1272d;}.cls-5{fill:#7e272d;}.cls-6{fill:#f2f2f2;}.cls-7{fill:#e6e6e6;}.cls-8{fill:#1b1464;stroke:#000;stroke-miterlimit:10;stroke-width:5px;}.cls-9{fill:#1b42b8;}.cls-10{fill:#333;}</style></defs><title>spaceshipFlame</title><path class="cls-1" d="M121.67,270.32s-19.94,57.82,17,95.89c0,0,30.06-18.81,17.36-95.89Z" transform="translate(-40.58 -5.45)"/><path class="cls-2" d="M126.83,269.51s-13.53,39.24,11.55,65.08c0,0,20.41-12.77,11.79-65.08Z" transform="translate(-40.58 -5.45)"/><path class="cls-3" d="M132.46,269.51s-6.55,19,5.59,31.49c0,0,9.88-6.17,5.7-31.49Z" transform="translate(-40.58 -5.45)"/><path class="cls-1" d="M139.85,270.87s-2.39,35.39,23.46,49.34c0,0,13.7-15.91-4.63-55.76Z" transform="translate(-40.58 -5.45)"/><path class="cls-2" d="M142.56,269.47s-1.63,24,15.92,33.48c0,0,9.3-10.8-3.14-37.84Z" transform="translate(-40.58 -5.45)"/><path class="cls-3" d="M145.64,268.41s-.78,11.63,7.71,16.21c0,0,4.49-5.23-1.52-18.31Z" transform="translate(-40.58 -5.45)"/><path class="cls-1" d="M122.58,260.15s-23.94,23.11-14.42,53.55c0,0,19.68-.37,31.77-43.12Z" transform="translate(-40.58 -5.45)"/><path class="cls-2" d="M125.38,261.31s-16.25,15.69-9.79,36.34c0,0,13.36-.25,21.56-29.26Z" transform="translate(-40.58 -5.45)"/><path class="cls-3" d="M128.22,263s-7.86,7.6-4.74,17.59c0,0,6.47-.12,10.44-14.16Z" transform="translate(-40.58 -5.45)"/><path class="cls-4" d="M53.61,264.73a.23.23,0,0,0,.16-.05c.49-.3.3-2.14,1.11-11.33,1.31-15.08,2-22.79,5.25-31.07,1.38-3.55,3.47-8.79,7.92-13.39a53.17,53.17,0,0,1,7.79-6.6c1.3-.87,2.56-1.8,3.9-2.62,1-.62,4.09-2.45,5.21-4.11a6,6,0,0,0,.78-1.74,4.68,4.68,0,0,0,.14-1.13c0-1.63-1.18-2.95-1.86-9.15-.37-3.41-.5-5.11-.51-5.37-.13-2.53,0-3.44-.36-4.13a4.45,4.45,0,0,0-.34-.44c-1.37-1.49-23,2.33-33.85,16C29.13,214.47,50.3,265.07,53.61,264.73Z" transform="translate(-40.58 -5.45)"/><path class="cls-5" d="M229,264.73a.22.22,0,0,1-.15-.05c-.49-.3-.31-2.14-1.11-11.33-1.31-15.08-2-22.79-5.25-31.07-1.38-3.55-3.47-8.79-7.92-13.39a53.17,53.17,0,0,0-7.79-6.6c-1.31-.87-2.56-1.8-3.91-2.62-1-.62-4.08-2.45-5.2-4.11a6,6,0,0,1-.78-1.74,4.68,4.68,0,0,1-.14-1.13c0-1.63,1.18-2.95,1.86-9.15.37-3.41.5-5.11.51-5.37.13-2.53,0-3.44.36-4.13a4.45,4.45,0,0,1,.34-.44c1.37-1.49,23,2.33,33.85,16C253.53,214.47,232.36,265.07,229,264.73Z" transform="translate(-40.58 -5.45)"/><path class="cls-6" d="M145.58,16.78c28.85.65,50.5,72.36,54.64,120.17,5.91,68.16-21,120.44-33.69,123.15-3.68.79-4.74-.28-27.95-.38-25.44-.12-26.63,1.15-30.44.11C103.35,258.52,74.08,207.62,85,133.7c6.77-45.93,31.54-117.57,60.59-116.92" transform="translate(-40.58 -5.45)"/><path class="cls-4" d="M115.83,41.35h58s-13.29-30.11-29-35.9C144.83,5.45,131.54,10.66,115.83,41.35Z" transform="translate(-40.58 -5.45)"/><path class="cls-7" d="M145.58,16.78c28.85.65,50.5,72.36,54.64,120.17,5.91,68.16-21,120.43-33.69,123.15-2.37.51-3.66.24-10.5,0-8-.33-8.12-.17-9.27-.35-4.48-.74-1.18-242.94-1.18-242.94" transform="translate(-40.58 -5.45)"/><path class="cls-5" d="M145.28,41.35H174s-13.29-30.11-29-35.9Z" transform="translate(-40.58 -5.45)"/><circle class="cls-8" cx="104.25" cy="104.82" r="21.9"/><path class="cls-9" d="M159.45,99.49a16.74,16.74,0,0,0-8.63-7A17.93,17.93,0,0,0,140.68,92a19.7,19.7,0,0,0-14.61,20.09,17.31,17.31,0,0,0,8.36,13.21,22,22,0,0,1,3.17-16.2A23,23,0,0,1,159.45,99.49Z" transform="translate(-40.58 -5.45)"/><path class="cls-10" d="M159,270.35H116.67L109,259.23h57.19Z" transform="translate(-40.58 -5.45)"/><path class="cls-4" d="M154.74,234.47c-4.63,33.54-6.94,50.31-10,50.31-2.45,0-5-16.77-10-50.31-1.36-9.08-6.17-42.59,2.43-48a16.32,16.32,0,0,1,7.58-2.35,16.05,16.05,0,0,1,7,1.74C160.59,190.68,155.88,226.17,154.74,234.47Z" transform="translate(-40.58 -5.45)"/><path class="cls-5" d="M144.73,184.15V284.78a1.34,1.34,0,0,0,.39-.07c.46-.17.72-.59,1.24-1.72.29-.64.43-1,.58-1.37a19.49,19.49,0,0,0,.63-2.07c.45-1.83.67-2.74.79-3.32,2.43-12.15,3.63-22.08,3.63-22.08,1.4-11.56,1.25-8.15,3.33-24.64,0,0,1.63-12.82,1.73-24.07,0-2.69-.19-5.27-.19-5.27-.07-.9-.19-2.29-.45-3.87-.67-4-1.28-8.28-4.42-10.19a15.17,15.17,0,0,0-2.35-1.11A14.39,14.39,0,0,0,144.73,184.15Z" transform="translate(-40.58 -5.45)"/></svg>