<svg id="Layer_1" data-name="Layer 1" xmlns="http://www.w3.org/2000/svg" viewBox="0 0 268.19 269.45"><defs><style>.cls-1,.cls-3{fill:#f7ad19;}.cls-2{fill:#ffd462;}.cls-3{opacity:0.48;}</style></defs><title>sun</title><polygon class="cls-1" points="63.13 41.87 83.07 47.93 67.84 62.16 52.62 76.39 47.91 56.09 43.19 35.8 63.13 41.87"/><polygon class="cls-1" points="35.06 70.78 55.87 69.65 46.44 88.24 37.01 106.82 25.64 89.36 14.26 71.91 35.06 70.78"/><polygon class="cls-1" points="19 108.37 38 99.81 35.91 120.55 33.82 141.28 16.91 129.1 0 116.92 19 108.37"/><polygon class="cls-1" points="19.52 149.4 36.29 137.03 38.61 157.74 40.94 178.45 21.84 170.1 2.75 161.76 19.52 149.4"/><polygon class="cls-1" points="99.49 22.73 116.23 35.13 97.11 43.43 78 51.73 80.37 31.02 82.74 10.32 99.49 22.73"/><polygon class="cls-1" points="140.42 16.97 152.52 33.94 131.77 35.93 111.03 37.92 119.68 18.96 128.33 0 140.42 16.97"/><polygon class="cls-1" points="205.06 39.29 185.13 45.36 200.35 59.59 215.57 73.82 220.29 53.52 225 33.23 205.06 39.29"/><polygon class="cls-1" points="233.13 68.21 212.32 67.08 221.75 85.67 231.18 104.25 242.56 86.79 253.94 69.33 233.13 68.21"/><polygon class="cls-1" points="249.19 105.8 230.19 97.24 232.28 117.97 234.38 138.71 251.28 126.53 268.19 114.35 249.19 105.8"/><polygon class="cls-1" points="168.71 20.16 151.96 32.56 171.08 40.86 190.19 49.16 187.82 28.45 185.45 7.75 168.71 20.16"/><polygon class="cls-1" points="240.45 185.4 230.87 166.89 219.63 184.44 208.39 201.98 229.2 202.95 250.02 203.91 240.45 185.4"/><polygon class="cls-1" points="217.08 218.23 214.43 197.56 197.86 210.2 181.28 222.83 200.51 230.87 219.74 238.9 217.08 218.23"/><polygon class="cls-1" points="183.02 240.83 188 220.59 167.99 226.4 147.97 232.2 163.01 246.63 178.04 261.06 183.02 240.83"/><polygon class="cls-1" points="252.7 146.18 237.47 131.96 232.76 152.26 228.06 172.56 247.99 166.48 267.93 160.41 252.7 146.18"/><polygon class="cls-1" points="108.1 248.65 123.83 234.98 104.12 228.2 84.42 221.41 88.4 241.87 92.38 262.33 108.1 248.65"/><polygon class="cls-1" points="70.68 233.7 90.14 226.24 73.94 213.12 57.75 200 54.49 220.59 51.22 241.17 70.68 233.7"/><polygon class="cls-1" points="40.68 205.94 61.52 206 51.15 187.92 40.78 169.85 30.31 187.87 19.84 205.88 40.68 205.94"/><polygon class="cls-1" points="149.1 251.29 159.33 233.13 138.49 233.36 117.65 233.58 128.26 251.51 138.88 269.45 149.1 251.29"/><circle class="cls-2" cx="135.11" cy="133.32" r="104.57"/><path class="cls-3" d="M215.5,216.17A104.57,104.57,0,0,1,72.26,63.78Z" transform="translate(-8.77 -6.65)"/></svg>