<?xml version="1.0" encoding="utf-8"?>
<!-- Generator: Adobe Illustrator 23.0.1, SVG Export Plug-In . SVG Version: 6.00 Build 0)  -->
<svg version="1.1" id="Layer_1" xmlns="http://www.w3.org/2000/svg" xmlns:xlink="http://www.w3.org/1999/xlink" x="0px" y="0px"
	 viewBox="0 0 145 192.3" style="enable-background:new 0 0 145 192.3;" xml:space="preserve">
<style type="text/css">
	.st0{clip-path:url(#SVGID_2_);}
	.st1{clip-path:url(#SVGID_4_);enable-background:new    ;}
	.st2{clip-path:url(#SVGID_6_);}
	.st3{clip-path:url(#SVGID_8_);}
	.st4{clip-path:url(#SVGID_10_);fill:#F0877C;}
	.st5{clip-path:url(#SVGID_12_);}
	.st6{opacity:0.5;clip-path:url(#SVGID_14_);fill:#D87368;}
	.st7{clip-path:url(#SVGID_16_);}
	.st8{clip-path:url(#SVGID_18_);}
	.st9{clip-path:url(#SVGID_20_);}
	.st10{clip-path:url(#SVGID_22_);}
	.st11{clip-path:url(#SVGID_24_);}
	.st12{clip-path:url(#SVGID_26_);fill:#FFFFFF;}
	.st13{clip-path:url(#SVGID_28_);}
	.st14{clip-path:url(#SVGID_30_);fill:#FFFFFF;}
	.st15{clip-path:url(#SVGID_32_);}
	.st16{clip-path:url(#SVGID_34_);fill:#C6394B;}
	.st17{clip-path:url(#SVGID_36_);}
	.st18{clip-path:url(#SVGID_38_);fill:#C6394B;}
	.st19{clip-path:url(#SVGID_40_);}
	.st20{clip-path:url(#SVGID_42_);fill:#C6394B;}
	.st21{clip-path:url(#SVGID_44_);}
	.st22{clip-path:url(#SVGID_46_);fill:#C6394B;}
	.st23{clip-path:url(#SVGID_48_);}
	.st24{clip-path:url(#SVGID_50_);fill:#C6394B;}
	.st25{clip-path:url(#SVGID_52_);}
	.st26{clip-path:url(#SVGID_54_);}
	.st27{clip-path:url(#SVGID_56_);}
	.st28{clip-path:url(#SVGID_58_);fill:#C6394B;}
	.st29{clip-path:url(#SVGID_60_);}
	.st30{opacity:0.35;clip-path:url(#SVGID_62_);fill:#FFFFFF;}
</style>
<g>
	<defs>
		
			<rect id="SVGID_1_" x="13.85" y="45.58" transform="matrix(0.0349 -0.9994 0.9994 0.0349 -29.3518 162.1138)" width="110.82" height="101.35"/>
	</defs>
	<clipPath id="SVGID_2_">
		<use xlink:href="#SVGID_1_"  style="overflow:visible;"/>
	</clipPath>
	<g class="st0">
		<defs>
			<rect id="SVGID_3_" x="-16.75" y="-69.75" width="168.3" height="299.35"/>
		</defs>
		<clipPath id="SVGID_4_">
			<use xlink:href="#SVGID_3_"  style="overflow:visible;"/>
		</clipPath>
		<g class="st1">
			<g>
				<defs>
					<rect id="SVGID_5_" x="15.34" y="37.73" width="104.35" height="113.55"/>
				</defs>
				<clipPath id="SVGID_6_">
					<use xlink:href="#SVGID_5_"  style="overflow:visible;"/>
				</clipPath>
				<g class="st2">
					<defs>
						<path id="SVGID_7_" d="M21.79,103.64c1.09,15.78,3.02,20.9,1.89,23.54c-1.06,2.49-3.05,2.46-4.74,4.7
							c-3.43,4.56-1.54,13.12,1.26,13.89c2.23,0.62,4.27-3.91,6.8-3.16c2.14,0.64,1.69,4.21,3.94,5.86
							c1.62,1.19,4.71,1.44,11.07-1.92c0.59-0.31,1.32-0.16,1.73,0.36c1.33,1.73,3.66,4.15,6.58,4.1c3.18-0.05,6.13-1.73,8.55-3.81
							c0.73-0.63,1.47-1.32,2.42-1.51c1.08-0.21,2.15,0.3,3.14,0.79c2.84,1.42,5.75,2.86,8.9,3.25c3.15,0.38,6.64-0.49,8.6-2.99
							c0.68-0.88,1.29-2,2.03-1.89c0.79,0.11,0.9,1.53,1.64,2.67c1.88,2.85,6.95,2.56,7.2,2.54c5.52-0.39,5.7-5.7,11.45-7.01
							c4.86-1.11,7.28,2.11,10.52,0.19c2.78-1.65,3.38-5.42,3.7-7.6c1.04-7.11-2.04-10.94-3.84-17.72c-2.14-8,0.77-7.8,0.14-23.49
							c-0.48-11.82-2.46-19.99-3.2-22.87c-2.23-8.61-3.42-13.18-7.16-17.86c-6.5-8.14-15.79-10.47-19.53-11.41
							c-20.59-5.16-38.4,7.02-39.8,8.01C22.03,66.58,21.38,97.69,21.79,103.64"/>
					</defs>
					<clipPath id="SVGID_8_">
						<use xlink:href="#SVGID_7_"  style="overflow:visible;"/>
					</clipPath>
					<g class="st3">
						<defs>
							<rect id="SVGID_9_" x="16.91" y="39.08" width="101.88" height="111.98"/>
						</defs>
						<clipPath id="SVGID_10_">
							<use xlink:href="#SVGID_9_"  style="overflow:visible;"/>
						</clipPath>
						
							<rect x="12.73" y="44.46" transform="matrix(0.0349 -0.9994 0.9994 0.0349 -29.3516 162.114)" class="st4" width="113.06" height="103.59"/>
					</g>
				</g>
				<g class="st2">
					<defs>
						<path id="SVGID_11_" d="M23.69,127.18c-1.06,2.49-3.05,2.46-4.74,4.7c-3.43,4.56-1.54,13.12,1.26,13.89
							c2.23,0.62,4.27-3.91,6.8-3.16c2.14,0.64,1.69,4.21,3.94,5.86c1.62,1.19,4.71,1.44,11.07-1.92c0.59-0.31,1.32-0.16,1.73,0.36
							c1.33,1.73,3.66,4.15,6.58,4.1c3.18-0.05,6.13-1.73,8.55-3.81c0.73-0.63,1.47-1.32,2.42-1.51c1.08-0.21,2.15,0.3,3.14,0.79
							c2.84,1.42,5.75,2.86,8.9,3.25c3.15,0.38,6.64-0.49,8.6-2.99c0.68-0.88,1.29-2,2.03-1.89c0.79,0.11,0.9,1.53,1.64,2.67
							c1.88,2.85,6.95,2.56,7.2,2.54c5.52-0.39,5.7-5.7,11.45-7.01c4.86-1.11,7.28,2.11,10.52,0.19
							c1.39-0.83-34.27,1.29-60.97-11.36c-8.51-4.03-15.54-13.72-18.68-21.5c-8.11-20.09,10.42-60.42,9.95-60.08
							c-23.04,16.28-23.69,47.39-23.28,53.34C22.88,119.42,24.81,124.54,23.69,127.18z"/>
					</defs>
					<clipPath id="SVGID_12_">
						<use xlink:href="#SVGID_11_"  style="overflow:visible;"/>
					</clipPath>
					<g class="st5">
						<defs>
							<rect id="SVGID_13_" x="16.91" y="39.08" width="101.88" height="111.98"/>
						</defs>
						<clipPath id="SVGID_14_">
							<use xlink:href="#SVGID_13_"  style="overflow:visible;"/>
						</clipPath>
						
							<rect x="15.96" y="51.31" transform="matrix(0.0349 -0.9994 0.9994 0.0349 -36.3139 165.0981)" class="st6" width="102.74" height="100.08"/>
					</g>
				</g>
			</g>
		</g>
	</g>
</g>
<g>
	<defs>
		<path id="SVGID_15_" d="M50.27,101.19c-0.13,3.84-2.05,6.89-4.28,6.81c-2.23-0.08-3.93-3.25-3.79-7.09
			c0.13-3.84,2.05-6.89,4.28-6.81C48.7,94.17,50.4,97.35,50.27,101.19"/>
	</defs>
	<clipPath id="SVGID_16_">
		<use xlink:href="#SVGID_15_"  style="overflow:visible;"/>
	</clipPath>
	<g class="st7">
		<defs>
			<rect id="SVGID_17_" x="-16.75" y="-69.75" width="168.3" height="299.35"/>
		</defs>
		<clipPath id="SVGID_18_">
			<use xlink:href="#SVGID_17_"  style="overflow:visible;"/>
		</clipPath>
		
			<rect x="38.15" y="95.88" transform="matrix(0.0349 -0.9994 0.9994 0.0349 -56.3655 143.7206)" class="st8" width="16.16" height="10.32"/>
	</g>
</g>
<g>
	<defs>
		<path id="SVGID_19_" d="M96.69,102.81c-0.13,3.84-2.05,6.89-4.28,6.81c-2.23-0.08-3.93-3.25-3.79-7.09
			c0.13-3.84,2.05-6.89,4.28-6.81C95.13,95.79,96.82,98.97,96.69,102.81"/>
	</defs>
	<clipPath id="SVGID_20_">
		<use xlink:href="#SVGID_19_"  style="overflow:visible;"/>
	</clipPath>
	<g class="st9">
		<defs>
			<rect id="SVGID_21_" x="-16.75" y="-69.75" width="168.3" height="299.35"/>
		</defs>
		<clipPath id="SVGID_22_">
			<use xlink:href="#SVGID_21_"  style="overflow:visible;"/>
		</clipPath>
		
			<rect x="84.58" y="97.5" transform="matrix(0.0349 -0.9994 0.9994 0.0349 -13.1829 191.6797)" class="st10" width="16.16" height="10.32"/>
	</g>
</g>
<g>
	<defs>
		<path id="SVGID_23_" d="M95.03,99.04c-0.04,1.05-0.57,1.89-1.19,1.87c-0.62-0.02-1.09-0.89-1.05-1.95
			c0.04-1.05,0.57-1.89,1.19-1.87C94.59,97.12,95.06,97.99,95.03,99.04"/>
	</defs>
	<clipPath id="SVGID_24_">
		<use xlink:href="#SVGID_23_"  style="overflow:visible;"/>
	</clipPath>
	<g class="st11">
		<defs>
			<rect id="SVGID_25_" x="-16.75" y="-69.75" width="168.3" height="299.35"/>
		</defs>
		<clipPath id="SVGID_26_">
			<use xlink:href="#SVGID_25_"  style="overflow:visible;"/>
		</clipPath>
		
			<rect x="90.87" y="96.76" transform="matrix(0.0349 -0.9994 0.9994 0.0349 -8.3171 189.396)" class="st12" width="6.06" height="4.49"/>
	</g>
</g>
<g>
	<defs>
		<path id="SVGID_27_" d="M49.22,99.02c-0.04,1.05-0.57,1.89-1.19,1.87c-0.62-0.02-1.09-0.89-1.05-1.95
			c0.04-1.05,0.57-1.89,1.19-1.87C48.79,97.09,49.26,97.96,49.22,99.02"/>
	</defs>
	<clipPath id="SVGID_28_">
		<use xlink:href="#SVGID_27_"  style="overflow:visible;"/>
	</clipPath>
	<g class="st13">
		<defs>
			<rect id="SVGID_29_" x="-16.75" y="-69.75" width="168.3" height="299.35"/>
		</defs>
		<clipPath id="SVGID_30_">
			<use xlink:href="#SVGID_29_"  style="overflow:visible;"/>
		</clipPath>
		
			<rect x="45.07" y="96.73" transform="matrix(0.0349 -0.9994 0.9994 0.0349 -52.4953 143.5928)" class="st14" width="6.06" height="4.49"/>
	</g>
</g>
<g>
	<defs>
		<path id="SVGID_31_" d="M67.68,43.13c0.31,0.75,2.63-0.02,2.35-0.7c-1.93-4.62-6.03-8.46-10.81-9.85
			c-0.67-0.2-2.78,0.87-1.87,1.14C61.87,35.03,65.85,38.75,67.68,43.13z"/>
	</defs>
	<clipPath id="SVGID_32_">
		<use xlink:href="#SVGID_31_"  style="overflow:visible;"/>
	</clipPath>
	<g class="st15">
		<defs>
			<rect id="SVGID_33_" x="-16.75" y="-69.75" width="168.3" height="299.35"/>
		</defs>
		<clipPath id="SVGID_34_">
			<use xlink:href="#SVGID_33_"  style="overflow:visible;"/>
		</clipPath>
		
			<rect x="57.19" y="30.25" transform="matrix(0.0349 -0.9994 0.9994 0.0349 23.3989 100.2182)" class="st16" width="12.79" height="15.48"/>
	</g>
</g>
<g>
	<defs>
		<path id="SVGID_35_" d="M72.55,29.55c0.51,4.13,0.64,8.26,0.42,12.42c-0.05,0.96,1.94,2.18,2.01,0.9
			c0.23-4.33,0.07-8.61-0.47-12.91C74.38,28.97,72.37,28.1,72.55,29.55"/>
	</defs>
	<clipPath id="SVGID_36_">
		<use xlink:href="#SVGID_35_"  style="overflow:visible;"/>
	</clipPath>
	<g class="st17">
		<defs>
			<rect id="SVGID_37_" x="-16.75" y="-69.75" width="168.3" height="299.35"/>
		</defs>
		<clipPath id="SVGID_38_">
			<use xlink:href="#SVGID_37_"  style="overflow:visible;"/>
		</clipPath>
		
			<rect x="65.34" y="33.52" transform="matrix(0.0349 -0.9994 0.9994 0.0349 35.1033 108.558)" class="st18" width="16.83" height="5.16"/>
	</g>
</g>
<g>
	<defs>
		<path id="SVGID_39_" d="M78.59,42.66c0.04-4.71,2.38-8.96,6.31-11.63c1.12-0.76-0.4-2.68-1.53-1.92
			c-4.39,2.97-6.98,7.85-7.02,13.08C76.35,43.5,78.58,44.21,78.59,42.66"/>
	</defs>
	<clipPath id="SVGID_40_">
		<use xlink:href="#SVGID_39_"  style="overflow:visible;"/>
	</clipPath>
	<g class="st19">
		<defs>
			<rect id="SVGID_41_" x="-16.75" y="-69.75" width="168.3" height="299.35"/>
		</defs>
		<clipPath id="SVGID_42_">
			<use xlink:href="#SVGID_41_"  style="overflow:visible;"/>
		</clipPath>
		
			<rect x="72.3" y="30.85" transform="matrix(0.0349 -0.9994 0.9994 0.0349 41.7902 115.7517)" class="st20" width="17.05" height="10.77"/>
	</g>
</g>
<g>
	<defs>
		<path id="SVGID_43_" d="M45.8,113.27c-0.05,1.42-2.05,2.51-4.46,2.43c-2.42-0.08-4.33-1.31-4.28-2.73
			c0.05-1.42,2.05-2.51,4.46-2.43C43.94,110.62,45.85,111.84,45.8,113.27"/>
	</defs>
	<clipPath id="SVGID_44_">
		<use xlink:href="#SVGID_43_"  style="overflow:visible;"/>
	</clipPath>
	<g class="st21">
		<defs>
			<rect id="SVGID_45_" x="-16.75" y="-69.75" width="168.3" height="299.35"/>
		</defs>
		<clipPath id="SVGID_46_">
			<use xlink:href="#SVGID_45_"  style="overflow:visible;"/>
		</clipPath>
		
			<rect x="37.73" y="107.62" transform="matrix(0.0349 -0.9994 0.9994 0.0349 -73.0603 150.572)" class="st22" width="7.41" height="11"/>
	</g>
</g>
<g>
	<defs>
		<path id="SVGID_47_" d="M99.85,115.15c-0.05,1.42-2.05,2.51-4.46,2.43c-2.42-0.08-4.33-1.31-4.28-2.73
			c0.05-1.42,2.05-2.51,4.46-2.43C97.98,112.51,99.9,113.73,99.85,115.15"/>
	</defs>
	<clipPath id="SVGID_48_">
		<use xlink:href="#SVGID_47_"  style="overflow:visible;"/>
	</clipPath>
	<g class="st23">
		<defs>
			<rect id="SVGID_49_" x="-16.75" y="-69.75" width="168.3" height="299.35"/>
		</defs>
		<clipPath id="SVGID_50_">
			<use xlink:href="#SVGID_49_"  style="overflow:visible;"/>
		</clipPath>
		
			<rect x="91.78" y="109.5" transform="matrix(0.0349 -0.9994 0.9994 0.0349 -22.785 206.4084)" class="st24" width="7.41" height="11"/>
	</g>
</g>
<g>
	<defs>
		<path id="SVGID_51_" d="M68.58,124.4c5.39,0.19,9.87-3.02,10.02-7.16c0.14-3.98-19.37-4.83-19.51-0.68
			C58.94,120.7,63.19,124.21,68.58,124.4z"/>
	</defs>
	<clipPath id="SVGID_52_">
		<use xlink:href="#SVGID_51_"  style="overflow:visible;"/>
	</clipPath>
	<g class="st25">
		<defs>
			<rect id="SVGID_53_" x="-16.75" y="-69.75" width="168.3" height="299.35"/>
		</defs>
		<clipPath id="SVGID_54_">
			<use xlink:href="#SVGID_53_"  style="overflow:visible;"/>
		</clipPath>
		
			<rect x="62.36" y="108.24" transform="matrix(0.0349 -0.9994 0.9994 0.0349 -52.6852 183.6901)" class="st26" width="12.8" height="21.77"/>
	</g>
</g>
<g>
	<defs>
		<path id="SVGID_55_" d="M68.84,119.29c-2.6-0.09-4.76,1.41-4.83,3.35c-0.07,1.87,9.35,2.27,9.42,0.33
			C73.5,121.03,71.44,119.38,68.84,119.29z"/>
	</defs>
	<clipPath id="SVGID_56_">
		<use xlink:href="#SVGID_55_"  style="overflow:visible;"/>
	</clipPath>
	<g class="st27">
		<defs>
			<rect id="SVGID_57_" x="-16.75" y="-69.75" width="168.3" height="299.35"/>
		</defs>
		<clipPath id="SVGID_58_">
			<use xlink:href="#SVGID_57_"  style="overflow:visible;"/>
		</clipPath>
		
			<rect x="65.16" y="115.93" transform="matrix(0.0349 -0.9994 0.9994 0.0349 -55.3378 186.2303)" class="st28" width="7.19" height="11.67"/>
	</g>
</g>
<g>
	<defs>
		<path id="SVGID_59_" d="M88.02,46.32c4.62,1.42,8.53,3.9,11.73,7.44c3.2,3.54,5.33,9.26,6.39,17.17
			c-3.23-7.48-6.69-12.78-10.38-15.92c-5.54-4.71-10.43-5.9-11.45-6.81c-1.03-0.91-1.27-2.02-0.57-2.4
			C84.2,45.54,85.63,45.72,88.02,46.32z"/>
	</defs>
	<clipPath id="SVGID_60_">
		<use xlink:href="#SVGID_59_"  style="overflow:visible;"/>
	</clipPath>
	<g class="st29">
		<defs>
			<rect id="SVGID_61_" x="-16.75" y="-69.75" width="168.3" height="299.35"/>
		</defs>
		<clipPath id="SVGID_62_">
			<use xlink:href="#SVGID_61_"  style="overflow:visible;"/>
		</clipPath>
		
			<rect x="82.45" y="44.3" transform="matrix(0.1219 -0.9925 0.9925 0.1219 25.4476 145.2241)" class="st30" width="24.69" height="27.86"/>
	</g>
</g>
</svg>
